<svg version="1.0" xmlns="http://www.w3.org/2000/svg" viewBox="4 129 822 481"><path d="M492 569a158 158 0 0 1-90-46c-14-14-21-24-27-37-4-9-5-10-5-22l1-17c1-5 1-5 5-5h4v6c0 7 2 13 8 25 15 30 45 56 83 71 12 5 32 10 43 11 10 1 13 2 13 8-1 6-3 7-18 7l-18-1zM343 259c-11-3-13-3-26-3-12 0-13 0-13-2 0-1 2-3 6-4 7-4 30-9 35-9 3 0 4 1 4 4l-1 4c-2 1-2 1 3 3 4 2 4 2 4 5 0 4 0 4-4 4l-8-2zm22-5c-7-4-11-8-11-12 0-3 1-4 7-10 5-5 7-6 10-6s3 0 3 3 3 3 4 0c0-2 1-3 4-3l4 1 8 1h8v4c0 9-5 18-13 22-6 3-19 3-24 0z" fill="#271b1c"/><g fill="#e44627"><path d="M716 599a192 192 0 0 1-74-31h11l13 5 35 13 18 7 9 4 3 1c1 2 0 2-6 2l-10-1zm-9-17c-14-3-41-13-51-18-8-5-4-5 15 0 15 4 23 5 39 6 6 1 7 2 7 3l-2 2c-1 1-2 2-2 5v4l-6-2zm-226-1-13-4-13-5c-9-3-13-4-14-7-1-2-12-8-20-10-7-3-12-7-26-21a86 86 0 0 1-24-30l-6-14c-4-8-7-18-9-31l-2-15v-3l-3 2-2 5c0 2-1 2-3 2-4 0-4 0-5-4-2-6-1-22 1-31l3-13c2-9 3-12 24-42a156 156 0 0 0 26-74c0-8-2-21-4-25l-5-5c-5-2-5-3-1-4 5-2 12-10 14-18 0-3 0-3-3-3-2 0-3 0-3-2 0-1 1-2 5-2l10-3c7-2 12-2 15 0l22 11c3 0 4 2 1 4v6c1 3 2 16 2 55 1 45 1 52 3 61 4 20 9 30 23 50l9 13c0 2-6 1-8-1-5-4-22-13-28-15-8-3-18-3-27-1-11 2-17 5-26 13-8 8-11 13-13 22l-2 6-1 2-1 2-1-3v-4c-1 0-2 9-2 19 0 9 0 10 4 19a155 155 0 0 0 129 84h15l1 3 2 7v5h-8c-13 2-28 1-36-1zm200-20-15-3c-6-2-8-3-8-5 0-3 2-4 9-2l13 2 9 2c1 1 0 8-1 8l-7-2z"/><path d="M548 553a150 150 0 0 1-65-23l-11-8-16-13c-8-9-9-10-9-13 0-4 0-4 4-4l7 3c8 6 30 18 46 25 13 6 32 11 45 12a77 77 0 0 0 34-6l4-3c3-2 3-3 3-7s0-4 2-3l7 2 9 3 6 4c4 1 4 2 2 9-2 4-3 6-8 9l-11 7-7 3c-5 2-14 3-19 3h-23z"/><path d="m544 518-11-3-5-2c-3 0-11-5-18-11-6-5-7-6-7-9s0-3 3-3l9 3c11 5 26 7 34 5 4-1 8-5 8-8 0-2 1-2 2-1l6 3 9 6 7 5 2 2c0 3-6 8-11 10-6 3-19 4-29 3z"/></g><path d="M537 598c0-2 0-2-4 0-8 3-53 2-74-2l-13-4-9-3c-2 0-8-2-13-5l-14-6c-3 0-6-2-8-4-2-3-3-3-8-3s-6 0-9-3l-8-7c-7-7-17-18-19-23l-5-8c-6-7-10-13-11-17l-3-15-3-18c0-8-3-27-4-27l-2 4c-3 10-3 10-7 10s-5-1-7-3c-3-2-3-4-4-11 0-8 0-9 4-23 5-13 6-14 12-22 13-15 17-19 23-19h3l-2 5c-2 2-3 7-4 11l-3 13c-2 9-3 20-1 26 1 3 1 3 2 1l4-7 6-8 2-3v9a128 128 0 0 0 17 65c4 10 8 15 23 30 14 14 19 18 26 21 8 2 19 8 20 10 1 3 5 5 14 7l13 5c14 5 25 7 43 5 9 0 10-1 6-7-2-3-2-6 0-6l3-2c1-1 1-2-1-4l-5-2v-9l-1-4c0-2 0-2 2-1l4 1 5 1 20 4 9 1 6-1 8-1c5 1 13 0 17-2l7-3 11-7c5-4 6-5 8-10 1-4 1-5 3-4l17 14c6 6 6 6 6 11 0 9-3 13-17 21a228 228 0 0 1-75 29l-10 3v-3zm185-13c-6 0-13-2-12-3l-1-4c-2-3-2-3 1-5 2-1 5-2 18-2a189 189 0 0 0 84-18c0 2-14 16-18 19a83 83 0 0 1-53 14l-19-1zm-10-20-13-1-15-3-3-3 3-2c3-1 5-2 9-1l11 1 31-4c8-2 8-2 8 0s-1 3-2 3c-2 1-2 1 1 3l3 4a314 314 0 0 1-33 3z" fill="#f6741b"/><g fill="#f9a30f"><path d="M452 609h-8a132 132 0 0 1-24-4 140 140 0 0 1-49-18l-7-4-3-2-3-2-8-6c-5-4-22-23-28-31-9-14-19-35-22-51-3-10-4-27-3-38a112 112 0 0 1 19-55 456 456 0 0 1 40-47l5-6 4-7a142 142 0 0 1 7-11l1-3c4-7 5-20 3-30-2-8-15-22-29-31-10-6-11-6-19-7l-11-1h-4l3-1c7-2 17-1 26 1l10 2s-8-4-14-5l-5-2 6-2 6-3a102 102 0 0 0-51 18l-3 3v-5l2-5 1-4c1-4 11-14 18-17 2-2 7-3 10-4l8-2 6-1c1 0 3-2 5-6l4-9a57 57 0 0 1 19-15l4-1 9-5 9-3 4-1 5-2 2-1 3-1 4-1 17-5 8-2c14-4 14-4 26-10a113 113 0 0 0 39-35l2-3v4a80 80 0 0 1-29 40c-8 7-12 9-17 12-8 3-8 4 0 2a135 135 0 0 0 35-16c2 0 9-6 17-14l6-5-5 11c-6 12-13 19-25 25-15 8-5 5 12-3a357 357 0 0 1 19-10l5-4 7-5 7-6 17-17c5-7 5-4 0 5l-11 20-21 23-10 7c-7 5-12 8-19 10l-2 1c1 1 3 0 19-3l8-3 9-3a119 119 0 0 0 31-18c2 2-18 23-24 26l-8 5-7 4a190 190 0 0 1-32 10l-7 2c-2 1 17 1 29 1l13-1-12 6-3 1-10 3c-8 2-11 2-19 1l-19-1c-8 0-10 0-16-3l-12-7c-5-3-5-3-9-2-11 4-29 6-31 4 0-1-1-1-1 1-1 2-1 2-3 1h-4c-3 2-3 2-3-1 0-2-1-2-7 4l-7 7 3 3 8 6c4 2 5 2 11 2 12-1 15 1 18 16s1 37-5 52l-4 10c-2 8-9 20-19 36a1260 1260 0 0 0-19 25c-3 1-8 6-17 17-8 10-9 10-13 24-4 11-5 14-4 19 0 5 0 7 3 9 4 5 5 4 9-8 1-3 2-7 4-8l3-6c1-2 1-1 1 3v10l4 27 2 17 3 14c1 4 5 10 12 17 1 2 4 5 4 8 2 5 12 16 20 23l7 7 6 3c2 0 2-1 2-3v-3l6 6c4 4 8 6 11 7l14 6c5 3 11 5 13 5l9 3c8 3 14 4 35 6 23 2 40 2 47-1 10-3 11-3 9 4 0 2-1 2-12 4a352 352 0 0 1-76 7zm286-48-5-4c0-2 8-7 15-8l10-3 9-4 5-2 6-4 7-4a85 85 0 0 0 28-33l1-2 1-7c1-7 0-13-5-19-4-5-3-5 1-3 7 3 13 15 15 28 0 6-2 19-6 26-6 12-30 30-45 35-28 8-31 8-37 4z"/><path d="M503 557c-29-6-52-15-75-32-23-16-42-41-49-64-4-10-2-22 3-33 3-5 16-17 22-20 9-4 20-6 31-6 12 1 17 3 30 10 11 6 16 9 20 14l15 14a855 855 0 0 1 41 33l5 4 9 7c6 6 7 8 3 13-3 4-8 5-20 5-10-1-17-3-26-7l-6-2 7 6a54 54 0 0 0 23 13c10 4 25 4 34 0 2-1 6-3 7-6l4-3 3 2c6 5 9 9 9 14 0 4 0 5-3 7l-4 3-3 1c-1 1-7 3-12 3-20 4-47 0-70-10-15-6-38-19-47-26-5-4-5-2 2 6 6 7 13 12 21 18a395 395 0 0 1 15 10l6 3 16 8c3 0 7 4 8 7 0 2 0 4-2 6-1 3-2 3-6 3l-11-2z"/></g><path d="M373 235c-3-2-3-6 1-7 7-1 9 1 5 6-1 2-2 2-6 1z" fill="#eae2d9"/></svg>