<svg xmlns="http://www.w3.org/2000/svg" version="1.0" viewBox="4 129 822 481"><path fill="#e44627" d="M218 577a140 140 0 0 1-28-9l34-5c17-5 36-14 44-21 5-4 7-9 3-8-1 1-2 0-2-1l-4-6c-7-8-8-12-8-26 0-12 0-13 3-17 4-6 9-11 13-11 7-2 7-1 9 11 4 24 15 54 25 66 2 2 2 2-3 6-11 10-28 18-43 22-10 2-32 1-43-1zm-57-210-12-8-8-6c-5-3-22-20-31-31-16-20-25-38-30-64-5-25-1-58 11-79l3-5v6a272 272 0 0 0 45 117 269 269 0 0 0 27 29l3 3-2 4c-5 6-6 13-5 21 2 8 1 14-1 13z"/><path fill="#f6741b" d="M183 551a281 281 0 0 1-82-21l-10-5a159 159 0 0 1-57-55l8 4 8 3 2 2 4 1 4 1 2 1 4 1 7 3 10 3 8 2 5 1a179 179 0 0 0 42 7h75l4-1h-4c-5 0-8-2-14-7l-6-5h-14l-25-3c-28-3-68-17-88-30-18-11-35-27-43-39-6-8-13-25-16-34-3-12-4-27-3-42v-12l4 5a208 208 0 0 0 54 56l22 15a505 505 0 0 0 34 16l31 10c14 3 22 4 22 2 0-3-3-5-14-9a285 285 0 0 1-47-24l-17-13c-18-15-30-30-40-51-14-26-18-49-14-77l3-18c1-8 2-9 4-4a298 298 0 0 0 25 54l5 7a273 273 0 0 0 38 45l8 7 33 22c10 6 19 10 22 10 2 0 1-1-2-2l-10-6c-4-4-5-5-6-11-1-11-1-20 2-26l4-7c1 0 4 1 7 4 5 4 9 6 9 5l-1-2c-1-1-1-1 2-1l4 2 6 9a124 124 0 0 1 20 33c4 4 8 16 12 31l6 18c3 7 12 21 18 27 4 4 18 13 26 17l4 4-1 2c-4-1-10 4-14 11-3 4-3 5-3 14 0 11 2 16 8 23l5 8c-1 4-27 14-44 17-11 2-38 3-46 2z"/><path fill="#f9a30f" d="m269 473-24-17c-6-6-15-20-18-27l-6-18a142 142 0 0 0-15-39l-17-25-6-9-6-6a217 217 0 0 1-25-33c-4-7-13-22-16-30l-3-8a148 148 0 0 1 2-104l1-7 1 20a203 203 0 0 0 15 72 130 130 0 0 0 14 28c5 10 17 24 38 45 17 17 26 27 35 40 4 4 5 6 9 16 7 12 8 16 9 19l1 5 1 3 8 35c4 12 7 18 11 23 1 1 2 4 2 11l1 9h-3l-9-3z"/></svg>