<?xml version="1.0" encoding="utf-8"?>
<!DOCTYPE svg PUBLIC "-//W3C//DTD SVG 1.0//EN" "http://www.w3.org/TR/2001/REC-SVG-20010904/DTD/svg10.dtd">
<svg id="companion-svg" version="1.0" xmlns="http://www.w3.org/2000/svg" viewBox="3.5 128.48 822.22 480.98">
 <g fill="#271b1c">
  <path d="M491.5 569 c-9.3 -1.3 -25.2 -5.6 -35 -9.5 -21.4 -8.7 -37.2 -19.3 -55.1 -37 -13.5 -13.3 -20.7 -23.3 -26.8 -37 -4 -9 -4.1 -9.1 -4.1 -21.5 0 -6.9 0.4 -14.6 0.8 -17.2 0.8 -4.8 0.8 -4.8 4.8 -4.8 l3.9 0 0 5.8 c0 6.8 2.1 13.5 7.8 24.7 15.5 30.8 45.6 56.7 83.2 71.5 12 4.8 31.9 9.7 43.3 10.6 10.1 0.9 12.9 2.8 12.5 8.7 -0.4 5.9 -2.6 6.7 -17.3 6.6 -6.6 -0.1 -14.7 -0.5 -18 -0.9z"/>
  <path d="M342.5 259.3 c-10.5 -3 -12.4 -3.3 -25.3 -3.4 -11.9 -0.1 -13.2 -0.3 -13.2 -1.9 0 -1.1 1.9 -2.6 5.7 -4.3 7.6 -3.4 30.4 -8.9 35.1 -8.5 3.4 0.3 3.7 0.6 4 3.7 0.2 2 -0.2 3.7 -0.9 4.2 -1.6 0.9 -1.5 0.9 3.4 3.2 3.2 1.5 3.7 2.1 3.7 5.2 0 3.4 -0.1 3.5 -3.7 3.4 -2.1 0 -6 -0.7 -8.8 -1.6z"/>
  <path d="M364.5 253.9 c-6.9 -3.6 -10.5 -7.8 -10.5 -12 0 -3.2 0.8 -4.4 6.5 -9.8 5.4 -5 7.2 -6.1 10 -6.1 3.1 0 3.5 0.3 3.5 2.5 0 3.3 2.8 3.3 3.6 0 0.5 -2 1.2 -2.5 3.9 -2.5 1.9 0 3.7 0.4 4 1 0.3 0.5 4.2 1 8.6 1 l7.9 0 0 3.6 c0 9.7 -5.5 18.9 -13.4 22.5 -6 2.7 -18.8 2.6 -24.1 -0.2z"/>
 </g>
 <g fill="#e44627">
  <path d="M715.5 599.3 c-5.3 -0.8 -22.8 -5.3 -29.6 -7.8 -11.5 -4.1 -43.9 -21.6 -43.9 -23.6 0 -1.3 5.9 -1.1 11 0.5 2.5 0.8 8.4 2.9 13 4.9 12.6 5.1 24.3 9.2 35 12.3 5.2 1.5 13.2 4.6 17.8 7 4.6 2.4 8.9 4.4 9.6 4.4 0.8 0 1.9 0.7 2.6 1.5 1.1 1.3 0.4 1.5 -5.6 1.4 -3.8 -0.1 -8.2 -0.4 -9.9 -0.6z"/>
  <path d="M706.5 582.3 c-13.6 -3 -41 -13.2 -50.5 -18.6 -8.1 -4.7 -4.2 -4.6 14.7 0.2 14.8 3.7 22.9 5.1 39.6 6.6 5.6 0.6 6.7 1 6.7 2.5 0 1 -0.9 2 -1.9 2.3 -1.5 0.3 -2.1 1.5 -2.3 4.4 l-0.3 4 -6 -1.4z"/>
  <path d="M481.3 581 c-4 -1.1 -10.1 -3.1 -13.5 -4.5 -3.5 -1.5 -9.4 -3.5 -13.2 -4.6 -8.4 -2.4 -12.2 -4.3 -13.6 -6.8 -1 -1.9 -12.3 -7.9 -20.1 -10.6 -6.4 -2.3 -12.2 -6.9 -26.2 -20.8 -14.7 -14.6 -18.6 -19.7 -23.2 -30.2 -1.7 -3.8 -4.5 -9.8 -6.3 -13.2 -4 -7.9 -6.8 -17.9 -8.7 -31.8 -0.9 -6 -1.8 -12.6 -2.1 -14.5 l-0.6 -3.5 -2.4 2.8 c-1.3 1.6 -2.4 3.7 -2.4 4.8 0 1.5 -0.7 1.9 -3.5 1.9 -3.1 0 -3.5 -0.3 -4.4 -3.7 -1.8 -6.2 -1.3 -22 0.8 -30.9 1.1 -4.3 2.5 -10.6 3.2 -13.9 1.6 -8.6 3.3 -11.5 23.5 -42 7.5 -11.5 14.3 -24.2 16.4 -31 0.6 -2.2 2.3 -6.8 3.6 -10.2 3.3 -8.5 6.4 -24.1 6.4 -32.3 0 -8.1 -2.2 -20.6 -4.5 -25 -0.9 -1.7 -3.1 -3.8 -5 -4.7 -4.1 -2 -4.5 -3.8 -1 -4.7 5.8 -1.5 12.4 -9.6 14 -17.4 0.6 -3.1 0.5 -3.2 -2.4 -3.2 -2.4 0 -3.1 -0.4 -3.1 -1.9 0 -1.5 1 -2 4.8 -2.6 2.6 -0.4 7.3 -1.5 10.4 -2.6 7.3 -2.4 11.9 -2.4 15 0.1 4.4 3.4 19.7 11 22.3 11 2.9 0 3.4 2.4 0.8 3.9 -1.6 0.9 -1.6 1.4 -0.3 5.8 1 3.7 1.5 16.4 2 55.3 0.6 45.3 0.9 51.5 2.8 60.5 4.1 20.4 8.8 30.6 22.7 50.1 5.2 7.3 9.5 13.5 9.5 13.8 0 1.5 -5.7 0.3 -8.4 -1.8 -4.9 -3.7 -21.6 -12.7 -27.2 -14.6 -8.3 -2.9 -18.1 -3.4 -27 -1.5 -11.1 2.4 -17.6 5.9 -26.1 13.9 -8 7.5 -11.3 12.9 -13.4 21.9 -0.8 3.1 -1.7 5.7 -2.1 5.7 -0.5 0 -0.8 0.9 -0.8 2 0 1.1 -0.5 2 -1.1 2 -0.7 0 -1 -1.4 -0.7 -3.5 0.2 -1.9 0.1 -3.5 -0.3 -3.5 -1.3 0 -2.3 8.9 -2.3 19 0 8.9 0.2 10.1 4 18.5 6 13.6 13.3 23.6 26.8 37 23.2 23 46 36.1 76.1 43.6 9.9 2.5 14.6 3.1 26.5 3.4 l14.5 0.4 1.7 2.8 c1 1.6 1.8 4.8 1.8 7.4 l0 4.6 -7.7 0.7 c-13.7 1.1 -28.3 0.6 -36 -1.4z"/>
  <path d="M680.9 561.4 c-3.6 -0.7 -10.1 -2.4 -14.5 -3.6 -6.6 -1.9 -8 -2.7 -8.2 -4.6 -0.5 -3.1 2.1 -3.8 8.7 -2.3 3.1 0.7 9.2 1.7 13.6 2.2 4.4 0.5 8.3 1.3 8.7 1.7 0.9 0.9 -0.1 8.2 -1.1 8.1 -0.3 0 -3.5 -0.7 -7.2 -1.5z"/>
  <path d="M547.5 553.4 c-14.8 -1.7 -30.1 -5.5 -40.5 -10.1 -9.6 -4.3 -19.3 -9.6 -24.5 -13.4 -2.2 -1.6 -7.1 -5.1 -11 -7.6 -3.8 -2.6 -10.9 -8.8 -15.7 -13.7 -7.9 -8.1 -8.8 -9.4 -8.8 -12.8 0 -3.7 0.1 -3.8 3.6 -3.8 2.3 0 4.7 0.9 6.9 2.6 8.2 6.2 30.7 18.7 46.5 25.7 12.9 5.8 31.9 10.6 45.1 11.4 10.4 0.6 26.3 -1.6 30.6 -4.3 1.2 -0.8 2.6 -1.4 3.2 -1.4 0.5 0 2.3 -1.2 4 -2.7 2.6 -2.3 3.1 -3.5 3.1 -7 0 -3.8 0.2 -4.2 1.8 -3.4 0.9 0.5 4.2 1.4 7.3 2.1 3.1 0.6 7.1 2.1 8.8 3.4 1.8 1.3 4.6 3 6.2 3.6 3.4 1.4 3.4 1.9 1.4 8.8 -1.3 4.2 -2.5 5.8 -7.3 9.6 -3.1 2.5 -8.2 5.5 -11.2 6.7 -3 1.1 -6.4 2.5 -7.5 2.9 -4.2 1.8 -14 3.2 -18.6 2.6 -2.9 -0.4 -5 -0.2 -5.4 0.4 -0.6 0.9 -11 1.2 -18 0.4z"/>
  <path d="M543.5 517.9 c-3.3 -0.6 -7.9 -1.9 -10.2 -2.9 -2.4 -1.1 -4.9 -2 -5.6 -2 -2.5 0 -11.1 -5.1 -17.9 -10.6 -6 -4.9 -6.8 -5.9 -6.8 -8.9 0 -3.3 0.2 -3.5 3.4 -3.5 1.8 0 5.8 1.1 8.9 2.5 11.2 5.2 25.9 7.6 33.4 5.6 4.3 -1.2 8.3 -5.3 8.3 -8.5 0 -1.8 1.5 -2.1 2.5 -0.6 0.4 0.6 2.8 2 5.3 3.2 2.6 1.2 7 4 9.7 6.3 2.8 2.3 5.8 4.4 6.8 4.8 0.9 0.3 1.7 1.1 1.7 1.7 0 2.5 -5.8 8.2 -10.6 10.4 -6.1 2.8 -19.7 4 -28.9 2.5z"/>
 </g>
 <g fill="#f6741b">
  <path d="M537 598.4 c0 -2.3 0 -2.3 -4.2 -0.8 -8 3 -52.3 1.9 -73.8 -1.8 -3.6 -0.6 -9.3 -2.4 -12.8 -3.9 -3.4 -1.6 -7.6 -2.9 -9.4 -2.9 -1.7 0 -7.4 -2.1 -12.7 -4.6 -5.3 -2.5 -11.6 -5.2 -14.1 -6.1 -2.5 -0.8 -5.9 -2.8 -7.5 -4.4 -2.7 -2.5 -3.9 -2.9 -8.6 -2.9 -4.7 0 -5.9 -0.4 -8.5 -2.9 -1.6 -1.5 -5.1 -4.7 -7.9 -7.1 -7.8 -6.7 -17.2 -18.1 -19.1 -23 -0.9 -2.5 -3.1 -6.1 -4.9 -8 -6.2 -6.7 -10.4 -13.1 -11.1 -16.8 -0.3 -2 -1.9 -9.1 -3.5 -15.7 -1.6 -6.6 -2.9 -14.5 -2.9 -17.5 0.1 -8.3 -2.7 -27 -4 -27 -0.4 0 -1.2 1.9 -1.9 4.2 -2.7 9.4 -3 9.8 -7.5 9.8 -3.4 0 -4.8 -0.6 -7 -2.9 -2.5 -2.6 -2.9 -3.9 -3.3 -11.3 -0.5 -7.9 -0.3 -9 4.2 -22.5 4.4 -13.1 5.2 -14.7 11.2 -22 12.9 -15.6 17.4 -19.3 23.3 -19.3 l3 0 -2.4 4.8 c-1.3 2.6 -2.9 7.4 -3.5 10.7 -0.7 3.3 -2.1 9.6 -3.2 13.9 -2.1 9 -2.5 19.1 -0.7 25.1 1 3.8 1.1 3.9 1.8 1.4 0.4 -1.4 2.3 -4.6 4.1 -7.1 1.9 -2.5 4.4 -6.1 5.7 -7.9 l2.2 -3.4 -0.1 9.5 c-0.2 17.4 4.3 39.6 10.3 51.3 1.8 3.4 4.6 9.4 6.3 13.2 4.6 10.5 8.5 15.6 23.2 30.2 14 13.9 19.8 18.5 26.2 20.8 7.8 2.7 19.1 8.7 20.1 10.6 1.4 2.5 5.2 4.4 13.6 6.8 3.8 1.1 9.7 3.1 13.1 4.6 14.1 5.8 25.6 7.4 43.6 5.9 8.7 -0.8 9.2 -1.5 5.6 -7.3 -2.1 -3.5 -1.9 -6.1 0.4 -6.1 0.8 0 2.1 -0.7 2.8 -1.6 1.1 -1.4 1 -2 -1.4 -4 -1.6 -1.3 -3.5 -2.4 -4.3 -2.4 -1.7 0 -1.8 -3.3 -0.2 -6 1 -1.5 1 -2.2 0 -3.2 -0.6 -0.6 -1.2 -2.3 -1.2 -3.6 0 -1.9 0.4 -2.3 1.8 -1.7 0.9 0.3 3.1 0.9 4.7 1.2 1.7 0.3 3.7 0.9 4.6 1.4 2 1 13.8 3.1 19.9 3.5 2.5 0.2 6.5 0.6 8.9 1 2.7 0.4 5.1 0.2 6.6 -0.6 1.3 -0.7 4.3 -1 7.1 -0.8 4.9 0.5 13.1 -0.6 16.9 -2.2 1.1 -0.4 4.5 -1.8 7.5 -2.9 3 -1.2 8.1 -4.2 11.2 -6.7 4.9 -3.9 6 -5.4 7.3 -9.9 1.3 -4.3 1.9 -5.3 3.3 -4.8 2.4 0.9 10.7 7.8 17.4 14.5 5.5 5.5 5.8 5.9 5.8 10.8 0 8.7 -3.1 12.6 -17 21 -8 4.8 -11.8 6.8 -28.5 14.4 -8.4 3.9 -32.1 11.5 -46.2 14.9 l-10.3 2.4 0 -2.3z"/>
  <path d="M722 585.3 c-6.1 -0.4 -13.1 -2.4 -12.4 -3.4 0.2 -0.5 -0.2 -2.2 -1 -3.8 -1.5 -2.8 -1.5 -3 1.2 -4.7 2.3 -1.6 5.1 -1.9 18.2 -2 18.3 -0.3 24.9 -0.8 39.3 -3.5 10.8 -2 31.1 -8.9 40 -13.5 2.6 -1.4 4.7 -2 4.7 -1.5 0 1.7 -13.8 15.9 -18.4 18.9 -15.7 10.5 -30 14.3 -52.6 14 -8 -0.1 -16.5 -0.3 -19 -0.5z"/>
  <path d="M711.5 565.4 c-1.1 -0.1 -6.9 -0.8 -12.9 -1.4 -7.3 -0.8 -12 -1.9 -14.2 -3.2 -1.9 -1.1 -3.4 -2.3 -3.4 -2.7 0 -0.4 1.5 -1.4 3.4 -2.2 2.5 -1.2 4.8 -1.4 8.8 -0.8 2.9 0.4 7.9 0.8 11.1 0.8 6.3 0.1 26.3 -2.4 31.2 -3.8 7.9 -2.4 7.5 -2.4 7.5 0.3 0 1.6 -0.7 2.7 -2.1 3.1 -2.1 0.7 -2 0.8 1 2.7 1.7 1.1 3.1 2.8 3.1 3.8 0 1.5 -1.1 1.9 -6.2 2.4 -8.7 0.7 -24.9 1.3 -27.3 1z"/>
 </g>
 <g fill="#f9a30f">
  <path d="M451.6 609.3 c-0.1 -0.1 -3.7 -0.4 -8.1 -0.7 -4.4 -0.3 -10.5 -1 -13.5 -1.6 -3 -0.6 -7.5 -1.3 -10 -1.5 -4.6 -0.5 -19.2 -4.6 -24.5 -6.9 -1.6 -0.7 -6.1 -2.6 -10 -4.1 -3.8 -1.6 -7.7 -3.4 -8.5 -4 -0.8 -0.6 -3.5 -2.1 -6 -3.4 -2.5 -1.3 -5.4 -3.2 -6.6 -4.2 -1.1 -1.1 -2.5 -1.9 -3.1 -1.9 -0.6 0 -2.1 -1 -3.4 -2.3 -1.3 -1.3 -4.8 -4 -7.7 -6.1 -5.2 -3.8 -22 -22.1 -27.7 -30.4 -9.8 -13.9 -19.3 -35.1 -23 -51 -2.3 -9.9 -3.5 -27.6 -2.6 -38.2 0.9 -9.7 3.5 -23.1 5.2 -26.2 0.5 -1 0.9 -2.6 0.9 -3.5 0 -1 0.9 -3.3 2 -5.1 1.1 -1.8 2 -3.8 2 -4.5 0 -0.7 2 -4.4 4.5 -8.1 2.5 -3.8 4.5 -7.1 4.5 -7.4 0 -1 17.2 -21.1 28.4 -33.2 4.4 -4.7 9.7 -10.7 11.8 -13.5 2.1 -2.7 4.4 -5.7 5.2 -6.5 0.7 -0.8 2.6 -3.7 4.1 -6.5 1.5 -2.7 3.6 -6.2 4.6 -7.7 1.1 -1.4 1.9 -3 1.9 -3.5 0 -0.4 0.7 -2.1 1.5 -3.6 3.2 -6.2 4.3 -20 2.4 -29.5 -1.8 -8.3 -14.6 -22 -28.8 -30.7 -9.8 -6 -11 -6.4 -18.7 -7 -4.3 -0.3 -9.5 -0.9 -11.4 -1.2 l-3.5 -0.6 3 -0.7 c6.5 -1.6 17 -1 25.9 1.5 4.9 1.4 9.2 2.3 9.4 2 0.7 -0.7 -7.8 -4.3 -13.9 -5.8 l-5.3 -1.4 6.8 -2.3 c4.5 -1.5 6.4 -2.6 5.8 -3.2 -0.7 -0.7 -5.7 0.2 -14.9 2.5 -15.3 3.9 -30.7 10.6 -36.2 15.7 l-3.4 3.2 0.7 -4.8 c0.3 -2.6 1 -5.2 1.5 -5.8 0.4 -0.6 1.1 -2.4 1.5 -3.9 0.9 -3.6 10.9 -13.5 17.2 -16.9 2.8 -1.5 7.5 -3.2 10.5 -3.7 2.9 -0.6 6.8 -1.3 8.4 -1.6 1.7 -0.3 4 -0.8 5.2 -1.1 1.5 -0.3 3.2 -2.3 5.1 -6.2 1.6 -3.1 3.7 -7 4.7 -8.7 2.1 -3.5 12.3 -12.1 15.9 -13.5 1.3 -0.5 2.7 -1.3 3 -1.8 0.3 -0.6 1.8 -1.3 3.2 -1.6 1.5 -0.4 5.9 -2.3 9.8 -4.2 3.9 -1.9 7.6 -3.4 8.2 -3.4 0.7 0 2.5 -0.7 4 -1.5 1.6 -0.8 3.9 -1.5 5.1 -1.5 1.2 0 2.5 -0.4 2.8 -1 0.3 -0.5 1.6 -1 2.9 -1 1.2 0 2.6 -0.4 3.2 -1 0.9 -0.9 8.9 -3.1 17.9 -5 2.2 -0.5 5.6 -1.3 7.5 -1.9 14.1 -4.2 14.2 -4.2 25.6 -9.8 10.3 -5.1 26.6 -18.9 32.9 -27.9 1.9 -2.8 4.7 -6.1 6.1 -7.5 l2.7 -2.4 -0.7 3.9 c-1.1 6 -7.4 17.2 -15.1 27 -1.6 2.1 -7.6 7.7 -13.2 12.6 -7.9 6.8 -11.8 9.4 -17.4 11.6 -7.8 3.1 -8 4.4 -0.2 2 14.4 -4.4 31.2 -11.6 33.3 -14.1 0.7 -0.8 1.8 -1.5 2.4 -1.5 1.5 0 8.3 -5.8 16.3 -13.8 3.5 -3.4 6.3 -5.6 6.3 -4.8 0 0.8 -2.1 5.7 -4.7 10.8 -6.1 12 -12.8 18.8 -24.9 25.1 -14.9 7.8 -5.4 5.2 12.1 -3.2 5.5 -2.7 10.7 -5.2 11.5 -5.5 2.6 -1.1 6.2 -3.4 6.9 -4.3 0.3 -0.4 2.9 -2.3 5.6 -4.2 2.8 -1.9 5.8 -4.2 6.7 -5 0.9 -0.9 3.8 -3.4 6.3 -5.6 7.9 -6.9 14.9 -14 17.5 -17.8 4.5 -6.6 4.6 -3.9 0.2 5 -3.5 7.1 -8.5 15.8 -11.6 20.1 -4.6 6.6 -18.6 22.3 -20.5 23 -0.8 0.3 -5.2 3.4 -9.7 6.8 -7.1 5.5 -12.8 8.5 -19.8 10.8 -1 0.4 -1.7 0.8 -1.5 1 0.4 0.4 3.3 -0.2 18.6 -3.3 2.9 -0.6 6.7 -1.8 8.5 -2.7 1.7 -0.9 5.6 -2.5 8.7 -3.5 7.4 -2.6 21.7 -10.4 26.5 -14.5 2.2 -1.9 4.2 -3.2 4.4 -2.9 1.7 1.7 -17.6 22.8 -23.8 25.9 -1.9 1 -5.7 3.1 -8.5 4.7 -2.7 1.6 -5.7 3.1 -6.5 3.5 -0.8 0.4 -3.7 1.7 -6.5 2.9 -2.7 1.3 -6.5 2.6 -8.4 3 -1.8 0.4 -5.2 1.5 -7.5 2.5 -2.2 1 -6.8 2.1 -10.1 2.5 -3.3 0.4 -6.4 1 -7 1.4 -1.7 1.1 17.5 1.6 29.9 0.9 6.6 -0.5 12.1 -0.6 12.4 -0.4 0.6 0.7 -9.8 5.6 -11.8 5.6 -0.9 0 -2 0.4 -2.6 0.9 -0.5 0.6 -5.2 2 -10.4 3.1 -7.7 1.8 -11.3 2.1 -19 1.5 -5.2 -0.3 -13.8 -0.8 -19 -1 -8.3 -0.4 -10.4 -0.9 -16.5 -3.9 -3.8 -1.9 -9.1 -4.9 -11.7 -6.6 -4.8 -3.2 -4.8 -3.2 -9 -1.6 -10.5 3.9 -28.8 6 -30.4 3.4 -0.5 -0.7 -1 -0.4 -1.5 1.1 -0.7 1.8 -1.1 2 -2.8 0.9 -1.5 -0.9 -2.4 -0.8 -4.4 0.5 -2.5 1.6 -2.6 1.6 -2.9 -1.1 -0.3 -2.6 -0.5 -2.5 -7.3 4 l-7 6.6 3.3 3.5 c1.8 1.9 5.4 4.4 7.9 5.7 3.9 1.9 5.5 2.2 11.6 1.7 11.5 -1 14.6 1.8 17.3 16 3 15.7 0.9 37.4 -5 52.6 -1.3 3.4 -3 8 -3.6 10.2 -2.3 7.5 -9.1 19.9 -19.4 35.5 -5.6 8.5 -11.5 17.6 -13.1 20.2 -1.6 2.6 -3.9 4.9 -5.2 5.3 -3.3 0.8 -8.6 5.8 -17.8 16.8 -8 9.5 -8.4 10.1 -12.8 23.3 -3.7 11.2 -4.4 14.5 -4.2 19.6 0.3 5 0.8 6.5 3.1 8.9 4.6 4.8 5.1 4.4 9 -8 0.9 -3 2.8 -6.6 4.2 -8 1.4 -1.4 2.9 -3.9 3.4 -5.6 0.5 -2.1 0.6 -1.2 0.3 3 -0.2 3.3 0 7.8 0.6 10 1.6 6.7 3.1 18.6 3.4 26.5 0.1 4.1 1.4 12 2.8 17.5 1.4 5.5 2.8 11.7 3.1 13.7 0.7 3.7 4.9 10.1 11.1 16.8 1.8 1.9 4 5.5 4.9 8 1.9 4.9 11.3 16.3 19.1 23 2.8 2.4 6.3 5.6 7.9 7.1 1.7 1.6 4 2.9 5.3 2.9 1.9 0 2.3 -0.5 2.3 -3.2 l0 -3.2 6.3 6.1 c4.1 4 7.7 6.6 10.7 7.6 2.5 0.9 8.8 3.6 14.1 6.1 5.3 2.5 11 4.6 12.7 4.6 1.8 0 6 1.3 9.4 2.9 7.5 3.4 14.2 4.6 34.8 6.3 22.8 1.9 40 1.5 47.4 -1.1 9.3 -3.3 10.7 -2.8 9 3.6 -0.7 2.6 -1.4 2.8 -12 4.8 -17.3 3.3 -32.5 5.3 -44.9 6 -12.9 0.7 -31.5 1.2 -31.9 0.8z"/>
  <path d="M737.8 560.8 c-2.7 -1.7 -4.8 -3.6 -4.8 -4.2 0 -1.9 8.2 -6.1 14.5 -7.5 3.3 -0.7 8 -2.2 10.5 -3.3 2.5 -1.1 6.4 -2.9 8.7 -3.9 2.4 -1.1 4.5 -1.9 4.8 -1.9 0.4 0 3.3 -1.8 6.5 -4 3.2 -2.2 6.2 -4 6.6 -4 0.3 0 4.2 -3 8.6 -6.7 8.1 -6.8 19.8 -22.4 19.8 -26.4 0 -1 0.4 -2 0.9 -2.3 0.5 -0.3 1.2 -3.2 1.6 -6.5 0.8 -7.4 -0.8 -13.3 -5.2 -18.8 -3.8 -4.8 -3.7 -4.9 1.2 -2.9 6.5 2.7 12.6 14.7 14.1 27.4 0.7 6.6 -2 19.2 -5.8 26.6 -6.1 12.1 -29.6 29.9 -45.3 34.4 -27.6 7.9 -30.4 8.2 -36.7 4z"/>
  <path d="M502.5 556.5 c-29 -5.3 -51.8 -14.9 -74.5 -31.4 -23 -16.6 -41.9 -41.1 -49.5 -64.1 -3.3 -9.8 -2 -22.1 3.3 -32.7 2.8 -5.4 15.7 -17.2 22.3 -20.4 8.8 -4.3 19.9 -6.3 31 -5.5 11.4 0.7 17.3 2.6 29.7 9.5 11.4 6.3 15.9 9.5 20.2 14.4 1.8 2.1 8.8 8.4 15.4 13.9 6.7 5.6 15.5 13.2 19.6 16.9 4.1 3.7 10 8.4 13 10.4 3 2.1 6.6 4.7 8 5.9 1.4 1.2 3.7 2.8 5.2 3.6 1.5 0.7 5.5 3.9 8.7 7 6.5 6.2 6.8 7.6 2.9 13.2 -2.7 3.9 -8.3 5.2 -19.8 4.4 -10.5 -0.6 -17.4 -2.3 -25.7 -6.1 -3.1 -1.4 -5.8 -2.3 -6 -2.1 -0.2 0.2 2.6 2.9 6.4 5.9 6.9 5.6 15.5 10.7 18 10.7 0.7 0 3.2 0.9 5.6 1.9 9.2 4.2 24.9 4.4 33.5 0.4 2.3 -1.1 5.7 -3.7 7.6 -5.9 l3.3 -3.8 3.6 2.7 c6.1 4.6 8.7 8.8 8.7 13.8 0 3.7 -0.5 4.9 -3.1 7.2 -1.7 1.5 -3.5 2.7 -4 2.7 -0.6 0 -2 0.6 -3.2 1.4 -1.2 0.7 -6.4 2.2 -11.6 3.1 -20 3.8 -47.2 -0.2 -70.1 -10.2 -15.1 -6.6 -38.3 -19.5 -46.6 -25.8 -5.8 -4.4 -5 -2.1 1.7 5.5 6.1 6.8 12.7 12.4 21.4 18.2 2.2 1.5 5.8 4.1 8 5.7 2.2 1.7 5.4 3.7 7 4.5 1.7 0.8 4.1 2.2 5.5 3 3.9 2.4 15.2 7.6 16.5 7.6 2.3 0 6.4 4 7 7 0.4 2 0.1 3.9 -1.1 6 -1.6 2.7 -2.3 3 -6.4 2.9 -2.5 0 -7.6 -0.7 -11.5 -1.4z"/>
 </g>
 <g fill="#eae2d9">
  <path d="M373.2 234.8 c-3.5 -1.7 -2.7 -6.1 1.3 -6.8 6.2 -1.2 8.2 1.1 4.9 5.8 -1.7 2.4 -2.8 2.6 -6.2 1z"/>
 </g>
</svg>